# xmcd
# 
# Track frame offsets:
#     150
#     17164
#     32997
#     48400
#     64568
#     82712
#     99355
#     112980
#     128957
#     142558
#     155785
#     168940
#     185578
# 
# Disc length: 2694
# 
# Revision: 2
# Processed by: cddbd v1.5.2PL0 Copyright (c) Steve Scherf et al.
# Submitted via: BonkEnc v1.0.6
# 
DISCID=9d0a840d
DTITLE=guilherme e santiago - guilherme e santiago só de você
DYEAR=5
DGENRE=sertanejo
TTITLE0=só de você
TTITLE1=é amor pra toda vida
TTITLE2=porque brigamos
TTITLE3=a culpa é sua
TTITLE4=ta por fora
TTITLE5=armadilhas
TTITLE6=marcas
TTITLE7=se isso é amor,eu amo
TTITLE8=babando colorido
TTITLE9=eu não contei até dez
TTITLE10=rabo de sai
TTITLE11=tô afim de festa
TTITLE12=o que tiver que vir virá
EXTD=
EXTT0=
EXTT1=
EXTT2=
EXTT3=
EXTT4=
EXTT5=
EXTT6=
EXTT7=
EXTT8=
EXTT9=
EXTT10=
EXTT11=
EXTT12=
PLAYORDER=
